<svg height="60" width="120" xmlns="http://www.w3.org/2000/svg"><g fill="#1a1a1a" stroke="#fff" stroke-miterlimit="10" stroke-width=".304"><path d="M42.164 30.665c-.051.08-.152.328-.288.744-.14.42-.31.942-.51 1.58-.201.628-.42 1.336-.65 2.116l-.72 2.394c-.274.814-.486 1.61-.73 2.393l-.607 2.12-.455 1.585-.213.76c-.09.252-.182.531-.334.841a8.594 8.594 0 01-.516.875c-.213.273-.425.507-.668.69s-.486.272-.76.272c-.425 0-.729-.145-.941-.425-.213-.288-.304-.808-.304-1.567v-.686c0-.252.122-.73.304-1.422.182-.698.395-1.482.668-2.357.243-.88.547-1.785.82-2.724l.82-2.551a41.6 41.6 0 01-2.308 2.339c-.82.79-1.67 1.488-2.521 2.095-.88.608-1.762 1.124-2.642 1.519s-1.732.577-2.552.577c-.941 0-1.73-.213-2.399-.638s-1.245-.942-1.67-1.61-.76-1.427-.972-2.247c-.119-.787-.24-1.637-.24-2.457v-.304c0-.091.012-.191.03-.285.073-1.52.289-3.068.638-4.66.364-1.603.82-3.189 1.397-4.768s1.245-3.128 2.005-4.635c.79-1.445 1.61-2.873 2.49-4.21s1.828-2.58 2.825-3.704c1.002-1.13 2.025-2.102 3.08-2.916 1.05-.82 2.113-1.458 3.188-1.914 1.063-.455 2.126-.698 3.177-.698 1.215 0 2.387.334 3.523.993 1.124.677 2.187 1.74 3.183 3.229.225.334.365.668.425 1.008.061.334.092.659.092.957 0 .71-.167 1.275-.508 1.682-.334.425-.729.608-1.215.608-.425 0-.82-.213-1.184-.669s-.79-1.093-1.215-1.913c-.425-.76-.88-1.306-1.397-1.64s-1.063-.486-1.67-.486c-.942 0-1.914.395-2.977 1.185s-2.095 1.791-3.128 3.067-2.035 2.734-2.977 4.374-1.791 3.31-2.52 5.041-1.306 3.402-1.732 5.072-.637 3.159-.637 4.495c0 .456.03.912.09 1.367.061.486.183.88.335 1.276s.395.698.698.941.669.365 1.094.365c.486 0 1.063-.152 1.67-.486.638-.334 1.276-.76 1.944-1.306s1.367-1.154 2.035-1.823 1.336-1.366 1.913-2.065 1.124-1.367 1.55-2.004c.455-.638.789-1.185 1.032-1.67l1.758-5.653c.225-.598.517-1.027.89-1.276.365-.255.738-.382 1.124-.382.182 0 .374.03.562.09.182.062.358.159.507.292.152.122.264.304.352.517.092.212.152.455.152.76 0 .758-.06 1.475-.182 2.137a14.083 14.083 0 01-.516 1.944c-.182.623-.425 1.257-.668 1.898a73.028 73.028 0 00-.73 2.005zm25.218 4.64c-.586.79-1.27 1.562-2.047 2.31a20.52 20.52 0 01-2.412 2.004 14.423 14.423 0 01-2.439 1.409c-.801.355-1.518.531-2.156.531s-1.163-.212-1.564-.637-.601-1.154-.601-2.187c0-.729.109-1.58.321-2.551-.346.607-.78 1.245-1.3 1.852a10.802 10.802 0 01-1.78 1.732c-.667.516-1.415.941-2.24 1.245s-1.726.486-2.704.486c-.434 0-.86-.061-1.266-.183-.425-.121-.79-.303-1.094-.577s-.546-.637-.759-1.093c-.182-.456-.273-1.033-.273-1.7l.06-.73c.061-.455.213-1.215.517-2.217s.729-2.308 1.336-3.918 1.428-3.523 2.521-5.8c.273-.608.577-1.033.972-1.307a1.92 1.92 0 011.761-.303c.183.03.365.121.547.243s.304.273.425.455a1.2 1.2 0 01.152.608c0 .151-.03.303-.06.425a7.516 7.516 0 01-.426 1.032l-.79 1.5c-.303.547-.607 1.155-.94 1.799a24.397 24.397 0 00-.912 2.01 27.001 27.001 0 00-.729 2.126 8.94 8.94 0 00-.364 2.096c0 .304.06.547.182.79s.364.364.668.364c.85 0 1.7-.273 2.49-.85a10.972 10.972 0 002.187-2.12c.668-.85 1.276-1.762 1.823-2.734s.971-1.852 1.336-2.654c.243-.538.486-1.115.668-1.731a12.31 12.31 0 01.638-1.701c.212-.516.486-.96.79-1.306.273-.346.637-.516 1.093-.516s.85.182 1.124.546.425.79.425 1.306c0 .274-.091.668-.273 1.154s-.395 1.063-.669 1.701l-.88 2.056a28.05 28.05 0 00-.881 2.217 23.133 23.133 0 00-.699 2.2c-.182.728-.273 1.396-.273 2.004 0 .577.304.85.88.85.426 0 .942-.121 1.55-.425.607-.273 1.245-.668 1.913-1.184s1.336-1.124 2.005-1.823 1.275-1.44 1.791-2.247l.213 3.22z"/><path d="M68.001 34.121c-.145.365-.288.79-.425 1.27a4.58 4.58 0 00-.212 1.29c0 .238.04.426.121.569.08.142.23.212.456.212.282 0 .631-.097 1.054-.294.419-.198.871-.456 1.357-.784.486-.322.996-.692 1.519-1.111.528-.426 1.054-.881 1.573-1.306.516-.456 1.014-.912 1.488-1.367s.9-.881 1.276-1.245c.103-.122.228-.183.376-.243a1.02 1.02 0 01.38-.092.77.77 0 01.668.335c.183.212.274.516.274.88 0 .334-.091.699-.274 1.094s-.516.79-.972 1.184a70.98 70.98 0 01-2.581 2.643c-.85.82-1.731 1.579-2.582 2.217s-1.7 1.123-2.551 1.518c-.85.365-1.67.547-2.46.547-.547 0-1.002-.091-1.367-.273s-.638-.426-.88-.73a3.048 3.048 0 01-.456-1.062 6.147 6.147 0 01-.122-1.306c0-.79.091-1.58.304-2.4s.425-1.579.699-2.247c.486-1.245.941-2.46 1.427-3.675l1.336-3.341 6.041-15.213c.228-.608.547-1.039.957-1.306.413-.243.82-.365 1.236-.365.425 0 .79.122 1.136.395.334.261.516.699.516 1.297 0 .283-.06.583-.167.9-.121.303-.243.649-.425 1.01-.334.735-.729 1.64-1.184 2.716l-1.519 3.523c-.516 1.26-1.063 2.581-1.61 3.948l-1.64 4.01c-.546 1.3-1.032 2.52-1.488 3.686l-1.184 3.016z"/><path d="M96.338 29.839a4.45 4.45 0 01.526-.313 1.03 1.03 0 01.455-.121c.295 0 .517.133.662.395.152.26.243.577.243.96 0 .41-.09.828-.273 1.254s-.425.783-.79 1.063a148.505 148.505 0 00-3.796 3.462c-1.124 1.042-2.157 1.938-3.159 2.688-1.002.76-1.974 1.336-2.916 1.761s-1.943.638-3.037.638c-1.002 0-1.792-.212-2.338-.668-.547-.425-.82-1.033-.82-1.822v-.182c0-.03.03-.122.03-.183.06-.455.273-1.002.638-1.64.364-.607.79-1.245 1.306-1.913s1.063-1.337 1.64-2.005 1.093-1.306 1.61-1.913c.486-.608.88-1.154 1.214-1.67.335-.486.486-.912.486-1.215a.6.6 0 00-.188-.456c-.143-.091-.364-.152-.668-.152-.547 0-1.093.152-1.658.425-.577.274-1.142.669-1.701 1.124-.547.486-1.094 1.002-1.616 1.61s-1.002 1.245-1.488 1.883a36.1 36.1 0 00-1.276 1.974c-.364.668-.698 1.276-.972 1.822l-.334.73-.455 1.093-.547 1.214-.516 1.185-.426 1.002a7.28 7.28 0 01-.273.608c-.06.152-.152.425-.304.82l-.546 1.39-.638 1.671-.608 1.64-.516 1.391c-.152.395-.243.662-.273.805-.152.395-.304.79-.486 1.154s-.38.678-.614.954c-.23.273-.498.501-.798.668a2.22 2.22 0 01-1.003.243c-.486 0-.88-.121-1.184-.34-.304-.213-.486-.668-.486-1.306 0-.304.03-.638.121-.972.061-.334.183-.644.304-.972.091-.334.243-.638.365-.941s.242-.608.334-.9c.698-1.579 1.442-3.158 2.186-4.756s1.458-3.158 2.157-4.707a109.464 109.464 0 001.913-4.586 50.19 50.19 0 001.458-4.313l.425-1.203c.182-.516.395-1.032.638-1.518s.516-.942.82-1.306.638-.556.972-.556c.547 0 .932.121 1.172.364.243.268.365.608.365 1.094 0 .09-.012.243-.04.455-.03.213-.06.425-.11.653l-.13.638c-.03.213-.09.364-.121.456a27.446 27.446 0 011.603-1.595c.578-.525 1.185-1.002 1.792-1.427s1.246-.79 1.883-1.048a4.824 4.824 0 011.914-.41c.455 0 .88.06 1.324.182.425.128.82.313 1.154.559.356.243.632.547.845.911s.318.799.318 1.288c0 .647-.17 1.336-.486 2.065a13.905 13.905 0 01-1.233 2.217 24.753 24.753 0 01-1.597 2.172c-.577.698-1.094 1.336-1.61 1.913l-1.275 1.488c-.335.395-.517.669-.523.82 0 .183.06.334.182.456s.334.182.608.182c.237 0 .57-.136 1.002-.395.45-.273 1.063-.698 1.853-1.324.79-.638 1.81-1.458 3.028-2.52a314.48 314.48 0 004.516-3.97z"/></g></svg>