<svg id="svg" version="1.1" xmlns="http://www.w3.org/2000/svg" xmlns:xlink="http://www.w3.org/1999/xlink" width="400" height="398.0295566502463" viewBox="0, 0, 400,398.0295566502463"><g id="svgg"><path id="path0" d="M92.829 200.599 L 92.829 272.114 150.100 272.013 L 207.371 271.912 207.472 239.664 C 207.534 220.060,207.429 207.269,207.202 207.043 C 206.972 206.812,203.373 209.139,197.738 213.163 C 186.641 221.088,184.588 222.567,179.940 225.993 C 174.923 229.690,174.820 229.635,176.929 224.402 C 177.731 222.415,178.076 221.521,179.816 216.932 C 182.327 210.306,186.448 199.566,186.848 198.606 C 187.959 195.932,190.984 188.072,191.251 187.165 C 191.524 186.239,191.381 185.922,190.265 184.974 C 189.547 184.364,187.947 182.997,186.708 181.937 C 181.039 177.083,174.667 167.812,173.279 162.395 C 173.104 161.713,172.655 159.990,172.280 158.566 C 171.068 153.955,171.392 144.526,172.902 140.438 C 173.064 140.000,173.427 138.924,173.709 138.048 C 174.431 135.805,175.454 133.606,176.905 131.175 L 178.153 129.084 135.491 129.084 L 92.829 129.084 92.829 200.599 M211.714 144.185 C 208.403 145.689,207.058 149.819,208.683 153.492 C 210.905 158.517,218.920 158.072,220.929 152.812 C 223.156 146.981,217.407 141.600,211.714 144.185 M240.249 144.273 C 233.627 148.310,236.364 157.524,243.997 156.891 C 247.619 156.591,250.199 153.881,250.199 150.376 C 250.199 145.343,244.364 141.765,240.249 144.273 M268.824 144.251 C 265.391 146.063,264.234 150.436,266.270 153.909 C 268.888 158.377,275.595 158.077,278.014 153.383 C 281.029 147.534,274.637 141.182,268.824 144.251 " stroke="none" fill="#4c5052" fill-rule="evenodd"></path><path id="path1" d="M0.000 199.203 L 0.000 398.406 95.120 398.346 C 147.435 398.313,188.894 398.153,187.251 397.991 C 173.590 396.640,168.015 395.873,161.727 394.477 C 160.755 394.261,158.526 393.780,156.773 393.407 C 117.285 385.002,77.727 361.239,50.853 329.778 C 43.818 321.542,41.291 318.143,33.459 306.375 C 20.294 286.594,8.026 253.874,5.001 230.478 C 4.860 229.382,4.477 226.424,4.151 223.904 C 1.969 207.027,2.944 179.857,6.325 163.347 C 8.159 154.389,8.493 152.936,9.812 148.207 C 12.142 139.854,13.812 134.945,17.743 124.900 C 18.656 122.568,22.342 114.453,23.135 113.032 C 23.353 112.640,24.274 110.848,25.180 109.048 C 52.322 55.174,109.479 14.046,169.522 5.185 C 184.938 2.910,209.458 2.347,222.510 3.969 C 230.356 4.944,240.247 6.713,247.410 8.423 C 253.109 9.784,267.225 14.178,270.319 15.555 C 271.195 15.945,272.898 16.623,274.104 17.062 C 294.660 24.551,328.405 47.120,341.608 62.209 C 342.251 62.944,344.504 65.428,346.614 67.729 C 368.469 91.565,385.943 124.603,392.447 154.382 C 396.569 173.258,397.220 178.849,397.499 197.809 C 397.777 216.677,396.943 225.834,393.449 242.231 C 390.337 256.840,382.795 278.781,378.068 286.977 C 377.838 287.375,376.655 289.687,375.438 292.116 C 372.063 298.852,368.010 305.427,360.383 316.535 C 357.303 321.023,349.062 331.027,345.432 334.687 C 344.658 335.468,342.633 337.567,340.934 339.352 C 312.059 369.682,267.343 391.902,225.697 396.616 C 209.886 398.406,205.679 398.315,305.876 398.362 L 400.000 398.406 400.000 199.203 L 400.000 0.000 200.000 0.000 L 0.000 0.000 0.000 199.203 M104.234 86.508 C 95.714 87.602,88.477 94.417,86.643 103.073 C 85.920 106.484,85.755 292.966,86.472 297.038 C 87.816 304.680,93.111 311.048,100.337 313.712 C 103.459 314.862,192.850 315.248,197.896 314.133 C 205.091 312.542,210.559 307.556,213.304 300.082 C 214.133 297.827,214.140 297.430,214.239 249.602 C 214.311 214.878,214.464 201.154,214.786 200.536 C 215.648 198.882,218.814 197.539,220.784 197.992 C 221.733 198.210,223.743 198.669,225.250 199.012 C 253.325 205.404,288.710 195.131,304.496 176.005 C 305.631 174.631,306.658 173.416,306.779 173.307 C 307.346 172.793,310.380 167.267,311.304 165.066 C 318.677 147.505,311.325 127.211,293.218 115.139 C 292.396 114.592,290.907 113.559,289.908 112.845 C 274.290 101.674,243.434 97.421,220.155 103.232 C 214.212 104.715,214.422 104.775,213.326 101.298 C 210.785 93.238,204.264 87.744,195.740 86.480 C 192.216 85.958,108.320 85.983,104.234 86.508 M178.191 128.922 C 178.321 129.052,177.381 131.248,176.101 133.802 C 171.570 142.848,170.786 152.230,173.716 162.351 C 174.221 164.094,177.989 171.597,178.779 172.433 C 179.049 172.719,180.071 173.993,181.048 175.263 C 183.041 177.852,187.922 182.692,189.641 183.782 C 191.244 184.799,192.135 186.275,191.672 187.147 C 191.468 187.533,189.932 191.524,188.261 196.016 C 186.589 200.508,185.060 204.542,184.863 204.980 C 184.666 205.418,184.118 206.763,183.646 207.968 C 183.173 209.173,182.636 210.518,182.451 210.956 C 182.267 211.394,181.678 213.008,181.141 214.542 C 180.604 216.076,179.890 217.958,179.554 218.725 C 179.218 219.492,178.814 220.478,178.657 220.916 C 178.067 222.564,176.583 226.520,176.302 227.191 C 175.891 228.174,176.974 228.102,177.893 227.087 C 178.292 226.646,181.054 224.553,184.030 222.436 C 187.007 220.320,190.339 217.927,191.434 217.119 C 199.749 210.991,206.570 206.354,207.118 206.459 C 207.713 206.574,207.778 209.389,207.871 239.340 L 207.973 272.095 207.074 272.312 C 206.580 272.431,180.627 272.480,149.402 272.420 L 92.629 272.311 92.527 200.996 C 92.471 161.773,92.510 129.457,92.614 129.183 C 92.812 128.662,177.673 128.403,178.191 128.922 M217.450 143.988 C 224.210 147.520,222.175 156.989,214.661 156.966 C 208.823 156.947,205.900 151.011,209.296 146.069 C 210.830 143.836,215.082 142.751,217.450 143.988 M245.943 143.873 C 252.791 147.392,250.941 156.972,243.413 156.972 C 235.965 156.972,233.761 147.385,240.438 144.031 C 241.848 143.323,244.712 143.241,245.943 143.873 M275.138 144.185 C 279.083 145.977,280.079 151.382,277.103 154.859 C 272.613 160.105,264.286 156.139,265.331 149.251 C 266.053 144.494,270.622 142.134,275.138 144.185 " stroke="none" fill="#f5f5f3" fill-rule="evenodd"></path><path id="path2" d="M190.040 4.389 C 180.670 4.934,168.897 6.424,161.554 7.995 C 159.363 8.463,156.847 8.995,155.964 9.176 C 144.717 11.481,129.142 16.961,115.494 23.414 C 110.160 25.936,98.963 32.099,97.479 33.329 C 96.860 33.843,96.167 34.263,95.939 34.263 C 95.711 34.263,94.694 34.846,93.679 35.558 C 92.663 36.270,91.537 37.032,91.175 37.251 C 90.813 37.470,88.775 38.904,86.645 40.438 C 84.516 41.972,82.269 43.586,81.652 44.024 C 70.799 51.734,54.547 68.084,43.634 82.271 C 40.234 86.690,34.759 94.712,34.172 96.134 C 34.009 96.528,33.445 97.425,32.917 98.127 C 30.115 101.855,19.721 122.474,18.516 126.693 C 18.360 127.241,17.873 128.488,17.435 129.465 C 15.824 133.055,11.699 145.595,10.746 149.801 C 10.572 150.568,10.158 152.271,9.826 153.586 C 2.116 184.108,2.257 217.971,10.225 249.203 C 10.784 251.394,11.470 254.084,11.749 255.179 C 12.707 258.937,16.277 269.125,18.451 274.303 C 26.873 294.367,34.269 306.877,48.314 324.817 C 55.057 333.430,69.374 347.447,79.318 355.172 C 85.263 359.789,92.429 364.835,95.173 366.335 C 95.975 366.773,97.882 367.954,99.411 368.960 C 103.297 371.515,110.597 375.378,119.522 379.602 C 128.837 384.011,142.787 388.685,156.972 392.150 C 171.202 395.626,192.790 397.589,208.160 396.806 C 225.147 395.939,236.336 394.180,253.586 389.665 C 255.653 389.124,261.917 387.195,262.749 386.843 C 263.187 386.658,265.428 385.841,267.729 385.027 C 270.030 384.213,272.629 383.236,273.506 382.854 C 274.382 382.473,276.534 381.572,278.287 380.853 C 282.452 379.144,296.635 371.946,300.199 369.732 C 309.231 364.121,317.399 358.346,325.862 351.587 C 333.461 345.518,347.789 330.795,354.377 322.287 C 359.190 316.071,367.729 303.733,367.729 302.996 C 367.729 302.853,368.161 302.165,368.689 301.467 C 369.857 299.925,371.946 296.097,375.794 288.446 C 391.947 256.330,399.017 219.467,395.851 183.865 C 393.438 156.731,384.823 127.863,372.903 106.972 C 372.403 106.096,371.527 104.523,370.957 103.477 C 365.961 94.313,357.065 81.715,348.799 72.098 C 341.480 63.582,330.150 52.807,320.876 45.543 C 284.151 16.774,236.230 1.700,190.040 4.389 M196.582 85.276 C 204.696 86.408,212.897 93.722,214.514 101.268 C 214.911 103.122,215.366 103.103,225.697 100.789 C 229.933 99.840,235.196 99.426,243.028 99.425 C 308.817 99.419,340.515 155.942,292.829 188.231 C 274.866 200.394,246.789 205.152,223.197 200.031 C 219.219 199.168,218.308 199.291,216.434 200.942 L 215.538 201.733 215.538 248.708 C 215.538 299.543,215.589 298.201,213.447 303.087 C 210.915 308.862,204.057 314.391,198.002 315.539 C 194.972 316.114,105.102 316.077,102.310 315.500 C 95.308 314.053,89.251 308.745,86.213 301.394 L 85.060 298.606 84.952 203.187 C 84.889 147.910,84.996 106.382,85.205 104.473 C 86.343 94.103,95.048 85.857,105.502 85.247 C 112.799 84.821,193.504 84.847,196.582 85.276 " stroke="none" fill="#fbbc3c" fill-rule="evenodd"></path><path id="path3" d="M192.282 3.617 C 184.767 3.918,178.408 4.465,173.904 5.197 C 153.089 8.582,138.446 12.570,124.305 18.703 C 122.441 19.512,120.110 20.514,119.124 20.930 C 107.055 26.025,90.286 36.396,76.494 47.296 C 67.952 54.047,53.265 68.806,46.844 77.092 C 39.971 85.960,36.451 90.972,32.258 97.865 C 29.828 101.857,28.533 104.195,24.039 112.697 C 20.553 119.292,14.478 134.514,12.173 142.430 C 11.599 144.402,10.889 146.823,10.596 147.809 C 9.892 150.181,8.149 157.407,7.618 160.159 C 7.386 161.365,7.008 163.247,6.780 164.343 C 1.576 189.290,2.599 222.594,9.374 248.805 C 11.661 257.650,15.524 269.554,17.521 273.904 C 17.722 274.343,18.805 276.853,19.927 279.482 C 26.107 293.963,36.578 311.300,46.790 323.958 C 70.736 353.642,102.179 375.465,138.845 387.852 C 187.452 404.273,244.446 399.709,290.700 375.694 C 329.502 355.547,362.800 320.543,379.570 282.271 C 380.051 281.175,380.923 279.203,381.508 277.888 C 384.383 271.438,388.154 260.352,390.995 250.000 C 399.459 219.165,399.131 179.091,390.163 148.207 C 389.622 146.345,388.936 143.924,388.639 142.829 C 383.861 125.220,371.332 100.279,359.019 83.865 C 356.999 81.172,351.722 74.408,351.403 74.104 C 351.288 73.994,350.037 72.560,348.622 70.916 C 327.912 46.860,297.926 26.178,268.526 15.672 C 265.787 14.694,262.886 13.642,262.079 13.335 C 260.183 12.614,248.830 9.407,245.219 8.573 C 237.958 6.894,229.781 5.514,221.650 4.594 C 216.949 4.062,214.093 3.886,202.988 3.444 C 201.235 3.374,196.417 3.452,192.282 3.617 M216.534 4.819 C 253.069 7.948,284.827 19.743,315.737 41.665 C 322.823 46.690,331.179 53.882,338.845 61.553 C 347.282 69.997,352.160 75.681,359.267 85.349 C 362.929 90.331,368.499 98.968,370.957 103.477 C 371.527 104.523,372.403 106.096,372.903 106.972 C 383.192 125.005,390.836 148.388,394.782 173.904 C 399.958 207.376,394.393 246.745,379.743 280.279 C 377.220 286.056,370.266 299.385,368.689 301.467 C 368.161 302.165,367.729 302.853,367.729 302.996 C 367.729 303.733,359.190 316.071,354.377 322.287 C 347.789 330.795,333.461 345.518,325.862 351.587 C 317.399 358.346,309.231 364.121,300.199 369.732 C 296.635 371.946,282.452 379.144,278.287 380.853 C 276.534 381.572,274.382 382.473,273.506 382.854 C 272.629 383.236,270.030 384.213,267.729 385.027 C 265.428 385.841,263.187 386.658,262.749 386.843 C 261.917 387.195,255.653 389.124,253.586 389.665 C 240.109 393.193,234.669 394.229,221.315 395.812 C 203.621 397.909,183.716 397.152,164.327 393.644 C 150.316 391.110,131.134 385.098,119.522 379.602 C 110.597 375.378,103.297 371.515,99.411 368.960 C 97.882 367.954,95.975 366.773,95.173 366.335 C 92.429 364.835,85.263 359.789,79.318 355.172 C 69.374 347.447,55.057 333.430,48.314 324.817 C 34.269 306.877,26.873 294.367,18.451 274.303 C 16.277 269.125,12.707 258.937,11.749 255.179 C 11.470 254.084,10.784 251.394,10.225 249.203 C 2.257 217.971,2.116 184.108,9.826 153.586 C 10.158 152.271,10.572 150.568,10.746 149.801 C 11.699 145.595,15.824 133.055,17.435 129.465 C 17.873 128.488,18.360 127.241,18.516 126.693 C 19.721 122.474,30.115 101.855,32.917 98.127 C 33.445 97.425,34.009 96.528,34.172 96.134 C 35.509 92.897,46.044 78.686,52.574 71.315 C 60.985 61.818,74.628 49.014,81.652 44.024 C 82.269 43.586,84.516 41.972,86.645 40.438 C 88.775 38.904,90.813 37.470,91.175 37.251 C 91.537 37.032,92.663 36.270,93.679 35.558 C 94.694 34.846,95.711 34.263,95.939 34.263 C 96.167 34.263,96.860 33.843,97.479 33.329 C 99.807 31.399,113.609 24.119,121.851 20.474 C 128.109 17.706,139.264 13.634,144.821 12.088 C 150.584 10.485,154.243 9.529,155.964 9.176 C 156.847 8.995,159.363 8.463,161.554 7.995 C 177.599 4.563,199.067 3.323,216.534 4.819 M105.502 85.247 C 95.048 85.857,86.343 94.103,85.205 104.473 C 84.996 106.382,84.889 147.910,84.952 203.187 L 85.060 298.606 86.213 301.394 C 89.251 308.745,95.308 314.053,102.310 315.500 C 105.102 316.077,194.972 316.114,198.002 315.539 C 204.057 314.391,210.915 308.862,213.447 303.087 C 215.589 298.201,215.538 299.543,215.538 248.708 L 215.538 201.733 216.434 200.942 C 218.308 199.291,219.219 199.168,223.197 200.031 C 232.325 202.013,245.865 202.582,255.196 201.377 C 322.365 192.701,338.012 131.303,279.482 106.081 C 265.039 99.857,240.596 97.452,225.697 100.789 C 215.366 103.103,214.911 103.122,214.514 101.268 C 212.897 93.722,204.696 86.408,196.582 85.276 C 193.504 84.847,112.799 84.821,105.502 85.247 M197.690 86.100 C 205.287 87.694,212.153 94.199,213.982 101.535 L 214.514 103.668 215.922 103.459 C 216.697 103.344,219.482 102.806,222.112 102.264 C 231.756 100.274,232.522 100.199,243.227 100.199 C 250.058 100.199,254.603 100.379,256.574 100.727 C 264.329 102.097,266.491 102.543,269.486 103.391 C 302.263 112.672,320.949 137.465,313.313 161.545 C 304.156 190.423,262.229 207.834,222.612 199.209 L 218.731 198.364 216.935 199.600 C 215.947 200.279,215.099 200.871,215.049 200.916 C 214.999 200.960,214.865 222.958,214.750 249.801 L 214.541 298.606 213.643 300.964 C 210.910 308.144,204.601 313.600,197.291 315.104 C 194.377 315.703,106.685 315.711,103.360 315.112 C 97.183 313.999,90.677 309.183,88.040 303.769 C 85.493 298.540,85.666 306.133,85.671 200.199 L 85.674 103.386 86.637 100.658 C 89.286 93.152,95.471 87.579,102.988 85.925 C 104.909 85.502,195.639 85.670,197.690 86.100 M92.614 129.183 C 92.510 129.457,92.472 161.683,92.528 200.797 L 92.632 271.912 92.730 200.500 L 92.829 129.087 135.558 128.984 L 178.287 128.881 135.545 128.783 C 101.646 128.705,92.765 128.788,92.614 129.183 M175.899 132.900 C 175.311 133.903,174.907 134.800,175.000 134.894 C 175.094 134.987,175.658 134.166,176.255 133.070 C 177.615 130.572,177.340 130.441,175.899 132.900 M172.663 140.813 C 172.542 141.129,172.513 141.712,172.599 142.108 C 172.696 142.558,172.832 142.342,172.962 141.534 C 173.179 140.177,173.038 139.837,172.663 140.813 M171.553 148.307 C 171.422 150.553,171.455 153.466,171.624 154.781 C 171.859 156.607,171.939 155.642,171.960 150.697 C 171.991 143.204,171.885 142.581,171.553 148.307 M271.414 157.247 C 271.798 157.347,272.425 157.347,272.809 157.247 C 273.192 157.147,272.878 157.065,272.112 157.065 C 271.345 157.065,271.031 157.147,271.414 157.247 M172.516 159.595 C 172.519 160.015,172.704 160.627,172.927 160.956 C 173.222 161.393,173.259 161.231,173.064 160.359 C 172.736 158.894,172.508 158.576,172.516 159.595 M174.109 164.774 C 174.116 165.249,177.232 170.994,177.763 171.514 C 177.988 171.733,177.315 170.299,176.269 168.327 C 174.160 164.351,174.101 164.255,174.109 164.774 M178.451 172.709 C 178.680 173.147,179.607 174.313,180.512 175.299 L 182.156 177.092 180.819 175.354 C 178.627 172.506,177.948 171.748,178.451 172.709 M184.462 179.880 C 185.652 181.086,186.716 182.072,186.825 182.072 C 186.935 182.072,186.051 181.086,184.861 179.880 C 183.670 178.675,182.607 177.689,182.497 177.689 C 182.388 177.689,183.272 178.675,184.462 179.880 M184.728 204.050 C 184.367 204.968,184.138 205.784,184.217 205.864 C 184.297 205.944,184.661 205.262,185.027 204.349 C 185.392 203.436,185.622 202.620,185.537 202.536 C 185.452 202.451,185.088 203.133,184.728 204.050 M204.372 208.002 C 201.161 210.398,200.979 210.787,204.086 208.613 C 205.567 207.577,206.956 206.839,207.174 206.974 C 207.392 207.108,207.570 207.028,207.570 206.796 C 207.570 205.994,206.544 206.381,204.372 208.002 M182.514 209.606 C 182.269 210.310,182.138 210.956,182.223 211.041 C 182.308 211.126,182.579 210.620,182.824 209.916 C 183.070 209.212,183.201 208.566,183.116 208.481 C 183.030 208.396,182.760 208.902,182.514 209.606 M198.862 211.928 C 195.773 214.162,195.369 214.777,198.328 212.739 C 200.478 211.259,201.581 210.323,201.119 210.371 C 201.051 210.378,200.036 211.079,198.862 211.928 M193.526 215.751 C 192.485 216.514,191.633 217.238,191.633 217.359 C 191.633 217.616,195.193 215.105,195.475 214.650 C 195.791 214.138,195.499 214.303,193.526 215.751 M179.947 216.401 C 179.586 217.319,179.357 218.135,179.436 218.215 C 179.516 218.294,179.880 217.613,180.246 216.700 C 180.611 215.787,180.841 214.971,180.756 214.886 C 180.672 214.802,180.307 215.483,179.947 216.401 M187.977 219.725 C 186.295 220.918,184.780 222.119,184.610 222.393 C 184.441 222.668,184.831 222.487,185.478 221.993 C 186.124 221.498,187.684 220.374,188.944 219.496 C 190.204 218.617,191.235 217.816,191.235 217.714 C 191.235 217.419,191.182 217.451,187.977 219.725 M180.777 224.914 C 179.736 225.678,178.884 226.390,178.884 226.497 C 178.884 226.604,179.781 226.048,180.876 225.261 C 182.579 224.038,183.190 223.474,182.769 223.516 C 182.714 223.521,181.818 224.151,180.777 224.914 M175.757 227.490 C 175.235 228.988,175.988 229.126,177.388 227.789 C 177.904 227.296,178.048 227.089,177.709 227.330 C 176.140 228.442,175.970 228.444,176.244 227.350 C 176.604 225.917,176.272 226.012,175.757 227.490 M121.813 272.410 C 137.425 272.468,162.973 272.468,178.586 272.410 C 194.198 272.353,181.424 272.305,150.199 272.305 C 118.974 272.305,106.200 272.353,121.813 272.410 " stroke="none" fill="#f0cc81" fill-rule="evenodd"></path><path id="path4" d="M190.438 3.213 C 157.258 4.444,125.340 14.490,95.020 33.248 C 66.876 50.660,39.781 80.067,25.180 109.048 C 24.274 110.848,23.353 112.640,23.135 113.032 C 22.342 114.453,18.656 122.568,17.743 124.900 C 13.812 134.945,12.142 139.854,9.812 148.207 C 8.493 152.936,8.159 154.389,6.325 163.347 C 2.944 179.857,1.969 207.027,4.151 223.904 C 4.477 226.424,4.860 229.382,5.001 230.478 C 8.026 253.874,20.294 286.594,33.459 306.375 C 41.291 318.143,43.818 321.542,50.853 329.778 C 77.727 361.239,117.285 385.002,156.773 393.407 C 158.526 393.780,160.755 394.261,161.727 394.477 C 164.700 395.137,167.304 395.600,171.490 396.212 C 175.202 396.754,177.399 396.998,187.649 398.006 C 193.612 398.592,209.888 398.489,215.339 397.831 C 217.968 397.514,222.719 396.957,225.896 396.594 C 267.458 391.846,312.112 369.626,340.934 339.352 C 342.633 337.567,344.658 335.468,345.432 334.687 C 349.062 331.027,357.303 321.023,360.383 316.535 C 368.010 305.427,372.063 298.852,375.438 292.116 C 376.655 289.687,377.838 287.375,378.068 286.977 C 385.067 274.841,393.829 245.653,396.165 226.693 C 398.300 209.367,398.090 187.046,395.634 170.319 C 394.947 165.642,392.037 152.018,390.784 147.610 C 382.255 117.620,366.906 89.861,346.614 67.729 C 344.504 65.428,342.251 62.944,341.608 62.209 C 328.405 47.120,294.660 24.551,274.104 17.062 C 272.898 16.623,271.195 15.945,270.319 15.555 C 267.225 14.178,253.109 9.784,247.410 8.423 C 244.350 7.693,233.771 5.586,230.279 5.013 C 220.305 3.373,204.889 2.677,190.438 3.213 M211.292 3.786 C 221.242 4.204,234.267 6.042,245.219 8.573 C 248.830 9.407,260.183 12.614,262.079 13.335 C 262.886 13.642,265.787 14.694,268.526 15.672 C 297.926 26.178,327.912 46.860,348.622 70.916 C 350.037 72.560,351.288 73.994,351.403 74.104 C 351.722 74.408,356.999 81.172,359.019 83.865 C 371.332 100.279,383.861 125.220,388.639 142.829 C 388.936 143.924,389.622 146.345,390.163 148.207 C 399.131 179.091,399.459 219.165,390.995 250.000 C 388.154 260.352,384.383 271.438,381.508 277.888 C 380.923 279.203,380.051 281.175,379.570 282.271 C 342.692 366.433,245.058 414.296,154.980 392.371 C 110.009 381.425,68.996 354.590,43.028 319.119 C 33.354 305.905,25.321 292.122,19.927 279.482 C 18.805 276.853,17.722 274.343,17.521 273.904 C 4.564 245.671,-0.151 197.572,6.780 164.343 C 7.008 163.247,7.386 161.365,7.618 160.159 C 8.149 157.407,9.892 150.181,10.596 147.809 C 10.889 146.823,11.599 144.402,12.173 142.430 C 14.478 134.514,20.553 119.292,24.039 112.697 C 28.533 104.195,29.828 101.857,32.258 97.865 C 36.451 90.972,39.971 85.960,46.844 77.092 C 52.007 70.429,63.885 58.129,71.713 51.336 C 85.276 39.569,105.123 26.840,119.124 20.930 C 120.110 20.514,122.441 19.512,124.305 18.703 C 138.446 12.570,153.089 8.582,173.904 5.197 C 180.616 4.105,196.126 3.170,202.988 3.444 C 204.741 3.513,208.478 3.667,211.292 3.786 M102.988 85.925 C 95.471 87.579,89.286 93.152,86.637 100.658 L 85.674 103.386 85.671 200.199 C 85.666 306.133,85.493 298.540,88.040 303.769 C 90.677 309.183,97.183 313.999,103.360 315.112 C 106.685 315.711,194.377 315.703,197.291 315.104 C 204.601 313.600,210.910 308.144,213.643 300.964 L 214.541 298.606 214.750 249.801 C 214.865 222.958,214.999 200.960,215.049 200.916 C 215.099 200.871,215.947 200.279,216.935 199.600 L 218.731 198.364 222.612 199.209 C 262.229 207.834,304.156 190.423,313.313 161.545 C 320.949 137.465,302.263 112.672,269.486 103.391 C 266.491 102.543,264.329 102.097,256.574 100.727 C 254.603 100.379,250.058 100.199,243.227 100.199 C 232.522 100.199,231.756 100.274,222.112 102.264 C 219.482 102.806,216.697 103.344,215.922 103.459 L 214.514 103.668 213.982 101.535 C 212.153 94.199,205.287 87.694,197.690 86.100 C 195.639 85.670,104.909 85.502,102.988 85.925 M195.740 86.480 C 204.264 87.744,210.785 93.238,213.326 101.298 C 214.422 104.775,214.212 104.715,220.155 103.232 C 243.434 97.421,274.290 101.674,289.908 112.845 C 290.907 113.559,292.396 114.592,293.218 115.139 C 311.325 127.211,318.677 147.505,311.304 165.066 C 310.380 167.267,307.346 172.793,306.779 173.307 C 306.658 173.416,305.631 174.631,304.496 176.005 C 291.994 191.152,268.159 200.791,243.227 200.782 C 238.348 200.781,228.956 199.856,225.250 199.012 C 223.743 198.669,221.733 198.210,220.784 197.992 C 218.814 197.539,215.648 198.882,214.786 200.536 C 214.464 201.154,214.311 214.878,214.239 249.602 C 214.140 297.430,214.133 297.827,213.304 300.082 C 210.559 307.556,205.091 312.542,197.896 314.133 C 192.850 315.248,103.459 314.862,100.337 313.712 C 93.111 311.048,87.816 304.680,86.472 297.038 C 85.755 292.966,85.920 106.484,86.643 103.073 C 88.477 94.417,95.714 87.602,104.234 86.508 C 108.320 85.983,192.216 85.958,195.740 86.480 M171.837 150.797 C 171.839 152.112,171.913 152.601,172.002 151.885 C 172.091 151.169,172.089 150.094,171.998 149.495 C 171.907 148.896,171.834 149.482,171.837 150.797 M185.259 180.279 C 186.449 181.484,187.513 182.470,187.622 182.470 C 187.732 182.470,186.848 181.484,185.657 180.279 C 184.467 179.074,183.404 178.088,183.294 178.088 C 183.185 178.088,184.069 179.074,185.259 180.279 M207.760 239.442 C 207.760 257.520,207.809 264.915,207.868 255.876 C 207.928 246.838,207.928 232.047,207.868 223.008 C 207.809 213.969,207.760 221.365,207.760 239.442 " stroke="none" fill="#f7dc99" fill-rule="evenodd"></path></g></svg>