<svg width="189" height="188" fill="none" xmlns="http://www.w3.org/2000/svg"><path d="M93.004 116.285H35.86v6.6h64.616a37.853 37.853 0 01-7.472-6.6zm80.083 30.384l-16.92-16.881a5.424 5.424 0 01-.078-7.605c-.033.032-.067.064-.099.097l-3.851 3.842a5.427 5.427 0 000 7.685l16.92 16.881a5.456 5.456 0 007.703 0l3.85-3.842c.027-.026.052-.053.077-.079a5.456 5.456 0 01-7.602-.098z" fill="#EBE7F2"/><path d="M137.548 75.737c-4.298-4.288-10.014-6.65-16.092-6.65-6.079 0-11.794 2.362-16.092 6.65-8.873 8.853-8.873 23.257 0 32.11a1.843 1.843 0 002.602 0 1.832 1.832 0 000-2.596c-7.438-7.421-7.438-19.496 0-26.917a18.975 18.975 0 0113.49-5.574c5.095 0 9.886 1.98 13.49 5.574 7.438 7.421 7.438 19.496 0 26.917a1.832 1.832 0 000 2.596c.359.358.83.537 1.301.537s.942-.179 1.301-.537c8.873-8.853 8.873-23.257 0-32.11z" fill="#58518c"/><path d="M130.62 82.395l-6.666 4.517a5.373 5.373 0 00-2.938-.868 5.381 5.381 0 00-5.388 5.375 5.381 5.381 0 005.388 5.376 5.381 5.381 0 005.282-6.44l6.666-4.518c.953-.646 1.2-1.94.554-2.89a2.09 2.09 0 00-2.898-.552z" fill="#58518c"/><path d="M162.957 101.867a1.838 1.838 0 00-1.841 1.836v11.227c0 1.014.824 1.836 1.841 1.836 1.016 0 1.84-.822 1.84-1.836v-11.227a1.838 1.838 0 00-1.84-1.836zM26.046 127.291c1.016 0 1.84-.821 1.84-1.836V47.612a1.84 1.84 0 011.84-1.836h129.55a1.84 1.84 0 011.84 1.836v33.643c0 1.014.824 1.836 1.84 1.836a1.838 1.838 0 001.841-1.836V47.612c0-3.038-2.476-5.508-5.521-5.508H29.726c-3.044 0-5.52 2.47-5.52 5.508v77.843c0 1.015.823 1.836 1.84 1.836z" fill="#846F75"/><path d="M153.142 63.34a1.838 1.838 0 001.841-1.836V53.12a1.838 1.838 0 00-1.841-1.836h-11.9c-1.016 0-1.84.821-1.84 1.836 0 1.014.824 1.835 1.84 1.835h10.06v6.549c0 1.014.824 1.836 1.84 1.836zm-49.317-10.22a1.838 1.838 0 00-1.84-1.836H35.86c-1.017 0-1.84.821-1.84 1.836v69.765c0 1.014.823 1.836 1.84 1.836h54.777c1.016 0 1.84-.822 1.84-1.836a1.838 1.838 0 00-1.84-1.836H37.7V54.955h64.284a1.838 1.838 0 001.841-1.835zm30.608 77.109c-1.016 0-1.84.822-1.84 1.836 0 1.014.824 1.836 1.84 1.836h9.753a1.838 1.838 0 001.841-1.836 1.838 1.838 0 00-1.841-1.836h-9.753zm19.507 11.995H20.28a4.171 4.171 0 01-4.171-4.162 4.171 4.171 0 014.171-4.161h84.25c1.017 0 1.84-.822 1.84-1.836a1.837 1.837 0 00-1.84-1.836H20.28c-4.329 0-7.852 3.514-7.852 7.833 0 4.32 3.522 7.834 7.852 7.834h133.66c1.016 0 1.84-.822 1.84-1.836a1.838 1.838 0 00-1.84-1.836zm27.973-4.361l-16.92-16.881c-2.841-2.834-7.464-2.833-10.306.001l-3.85 3.842a7.266 7.266 0 00.001 10.28l16.92 16.881a7.246 7.246 0 005.153 2.128 7.247 7.247 0 005.152-2.129l3.851-3.841a7.267 7.267 0 00-.001-10.281zm-2.602 7.684l-3.851 3.841a3.586 3.586 0 01-2.549 1.055 3.59 3.59 0 01-2.55-1.054l-16.92-16.881a3.595 3.595 0 010-5.088l3.849-3.842a3.588 3.588 0 012.551-1.054c.963 0 1.869.374 2.55 1.054l16.92 16.881a3.596 3.596 0 010 5.088z" fill="#846F75"/><path d="M121.456 61.928c-16.438 0-29.81 13.341-29.81 29.74s13.372 29.74 29.81 29.74c16.437 0 29.809-13.341 29.809-29.74s-13.372-29.74-29.809-29.74zm0 55.808c-14.408 0-26.13-11.694-26.13-26.068s11.722-26.069 26.13-26.069 26.129 11.695 26.129 26.069c0 14.374-11.722 26.068-26.129 26.068z" fill="#846F75"/><path d="M121.456 52.248c-21.787 0-39.51 17.684-39.51 39.42s17.724 39.419 39.51 39.419c8.049 0 15.727-2.373 22.309-6.881l1.359 1.357a1.844 1.844 0 002.603 0 1.832 1.832 0 000-2.596l-2.462-2.458a1.843 1.843 0 00-2.402-.173c-6.22 4.632-13.623 7.08-21.407 7.08-19.757 0-35.83-16.036-35.83-35.748 0-19.711 16.073-35.747 35.83-35.747 19.757 0 35.83 16.036 35.83 35.747 0 7.767-2.454 15.153-7.096 21.358a1.832 1.832 0 00.173 2.396l2.461 2.458a1.846 1.846 0 002.603 0 1.832 1.832 0 000-2.596l-1.359-1.357c4.518-6.567 6.897-14.228 6.897-22.259.001-21.736-17.723-39.42-39.509-39.42zM45.687 69.087c-1.016 0-1.84.822-1.84 1.836v32.78c0 1.014.824 1.836 1.84 1.836h29.9c1.016 0 1.84-.822 1.84-1.836a1.838 1.838 0 00-1.84-1.836h-.055V88.002a1.838 1.838 0 00-1.84-1.836c-1.017 0-1.84.822-1.84 1.836v13.865h-3.48V83.764a1.838 1.838 0 00-1.84-1.836c-1.016 0-1.84.822-1.84 1.836v18.103h-3.478V90.276a1.838 1.838 0 00-1.84-1.836c-1.017 0-1.84.822-1.84 1.836v11.591h-3.48v-5.072a1.838 1.838 0 00-1.84-1.836c-1.016 0-1.84.822-1.84 1.836v5.072h-2.846V70.923a1.838 1.838 0 00-1.84-1.836z" fill="#846F75"/></svg>