<svg width="188" height="188" fill="none" xmlns="http://www.w3.org/2000/svg"><path d="M33.41 92.048v3.903a3.135 3.135 0 003.135 3.135h8.528v-7.038H33.41zm11.663 9.373v5.75a2.692 2.692 0 002.691 2.692h24.65v-8.441h-27.34v-.001zm67.594 15.025l-40.252-14.814v8.23l40.252 14.814a2.69 2.69 0 003.621-2.525v-8.23a2.69 2.69 0 01-3.621 2.525zM66.875 40.123c-.6-.88-1.9-.88-2.5 0L55.023 53.86l-3.64-5.347a1.513 1.513 0 00-2.5 0L40.11 61.396a1.51 1.51 0 001.505 1.447H69.25c.835 0 1.512-.677 1.512-1.512V45.832l-3.886-5.709zm-16.742 3.442a3.876 3.876 0 100-7.751 3.876 3.876 0 000 7.751zm59.786 90.285H78.783a3.55 3.55 0 00-2.447.982l15.3 12.079a4.384 4.384 0 005.43 0l15.3-12.079a3.554 3.554 0 00-2.447-.982zm14.024-81.178c0-.694.039-1.38.111-2.055 1.025 9.625 9.17 17.122 19.066 17.122 9.897 0 18.04-7.498 19.066-17.122.072.675.111 1.36.111 2.055 0 10.59-8.586 19.176-19.177 19.176a19.089 19.089 0 01-10.776-3.313l-7.99 2.851 5.638-4.742c-3.721-3.499-6.049-8.462-6.049-13.972z" fill="#EBE7F2"/><path d="M143.12 56.5a2.823 2.823 0 01-2.823-2.822V42.505a2.823 2.823 0 015.646 0v11.173a2.823 2.823 0 01-2.823 2.823zm0 8.23a2.823 2.823 0 100-5.646 2.823 2.823 0 000 5.646z" fill="#58518c"/><path d="M129.673 91.08v-.45c0-6.756-5.037-12.345-11.55-13.244V59.56a4.528 4.528 0 00-6.09-4.248l-39.945 14.7H47.765a4.533 4.533 0 00-4.527 4.528v6.25h-6.692a4.977 4.977 0 00-4.97 4.971v10.19c0 2.74 2.23 4.971 4.97 4.971h6.692v6.25a4.533 4.533 0 004.527 4.527H52l6.154 19.978c.238.77.95 1.296 1.755 1.296h7.467a1.835 1.835 0 001.808-2.153l-3.345-19.122h6.25l39.944 14.702a4.526 4.526 0 006.09-4.248v-17.827c6.514-.9 11.55-6.489 11.55-13.246zm-93.127 6.17a1.3 1.3 0 01-1.3-1.3V85.76a1.3 1.3 0 011.3-1.3h6.691v12.79h-6.692zm10.363 9.921V74.54c0-.473.383-.856.855-.856H70.58v34.343H47.765a.858.858 0 01-.856-.856zm18.282 22.128h-3.927l-5.421-17.601h6.268l3.08 17.601zm49.261-7.148a.84.84 0 01-.366.702.836.836 0 01-.784.101l-39.05-14.372V73.129l39.05-14.372a.836.836 0 01.784.1.839.839 0 01.366.702v62.592zm3.671-21.531V81.091c4.482.86 7.879 4.811 7.879 9.54v.448c-.001 4.73-3.397 8.68-7.879 9.541z" fill="#846F75"/><path d="M41.479 64.679h27.908a3.214 3.214 0 003.211-3.211V31.352c0-1.77-1.44-3.21-3.21-3.21h-27.91c-1.77 0-3.21 1.44-3.21 3.21v30.116c0 1.77 1.44 3.21 3.21 3.21zm.461-32.866h26.986v29.194H41.94V31.813zm67.98 100.201H78.783a5.41 5.41 0 00-5.404 5.404v17.036a5.41 5.41 0 005.404 5.404h31.137a5.41 5.41 0 005.403-5.404v-17.036a5.41 5.41 0 00-5.403-5.404zm1.732 22.44c0 .955-.777 1.732-1.732 1.732H78.783a1.735 1.735 0 01-1.732-1.732v-17.036c0-.955.777-1.732 1.732-1.732h31.137c.955 0 1.732.778 1.732 1.732v17.036zm10.973-83.684a1.837 1.837 0 002.346 2.345l7.137-2.547a20.899 20.899 0 0011.012 3.115c11.586 0 21.012-9.425 21.012-21.011 0-11.587-9.426-21.013-21.012-21.013s-21.012 9.426-21.012 21.013c0 3.887 1.059 7.65 3.071 10.94l-2.554 7.157zm20.495-35.44c9.563 0 17.341 7.78 17.341 17.342 0 9.561-7.779 17.34-17.341 17.34a17.25 17.25 0 01-9.743-2.995 1.834 1.834 0 00-1.649-.212l-4.342 1.55 1.553-4.359a1.83 1.83 0 00-.207-1.642 17.257 17.257 0 01-2.953-9.683c0-9.561 7.78-17.34 17.341-17.34zm11.24 76.072h-22.48a4.25 4.25 0 00-4.245 4.244v22.481a4.25 4.25 0 004.245 4.245h22.48a4.249 4.249 0 004.245-4.245v-22.481a4.248 4.248 0 00-4.245-4.244zm.574 26.726a.574.574 0 01-.573.573H131.88a.573.573 0 01-.572-.573v-22.481c0-.316.257-.573.572-.573h22.481c.317 0 .573.257.573.573v22.481z" fill="#846F75"/><path d="M150.009 128.093l-9.135 6.193c-.965.654-2.27-.038-2.27-1.204v-12.385c0-1.166 1.305-1.858 2.27-1.203l9.135 6.192a1.454 1.454 0 010 2.407z" fill="#58518c"/></svg>