<svg width="188" height="188" fill="none" xmlns="http://www.w3.org/2000/svg"><path d="M35.495 116.285h94.381v6.6H35.494v-6.6z" fill="#EBE7F2"/><path d="M25.703 127.291a1.835 1.835 0 01-1.836-1.836V47.612a5.514 5.514 0 015.508-5.508h129.25a5.514 5.514 0 015.508 5.508v29.497a1.836 1.836 0 11-3.672 0V47.612a1.838 1.838 0 00-1.836-1.836H29.375a1.838 1.838 0 00-1.836 1.836v77.843a1.835 1.835 0 01-1.836 1.836z" fill="#846F75"/><path d="M122.457 124.721H35.495a1.836 1.836 0 01-1.836-1.836V53.119c0-1.014.821-1.835 1.836-1.835h117.01c1.015 0 1.836.821 1.836 1.836v23.99a1.835 1.835 0 11-3.672 0V54.954H37.33v66.094h85.127a1.836 1.836 0 110 3.672zm0 21.175H19.951c-4.32 0-7.834-3.514-7.834-7.834 0-4.319 3.514-7.833 7.834-7.833h102.506a1.836 1.836 0 110 3.672H19.951a4.166 4.166 0 00-4.162 4.161 4.166 4.166 0 004.162 4.162h102.506a1.836 1.836 0 110 3.672z" fill="#846F75"/><path d="M134.968 143.38h35.075v6.576h-35.075v-6.576z" fill="#EBE7F2"/><path d="M175.134 163.47h-45.258a1.835 1.835 0 01-1.836-1.836V83.79c0-1.014.821-1.836 1.836-1.836h45.258c1.014 0 1.836.822 1.836 1.836v77.844a1.836 1.836 0 01-1.836 1.836zm-43.422-3.672h41.586V85.626h-41.586v74.172z" fill="#846F75"/><path d="M170.043 151.792h-35.075a1.836 1.836 0 01-1.836-1.836V91.063c0-1.015.822-1.836 1.836-1.836h35.075c1.014 0 1.836.821 1.836 1.835v58.894a1.836 1.836 0 01-1.836 1.836zm-33.239-3.672h31.403V92.898h-31.403v55.222zm20.303 9.486h-9.202a1.835 1.835 0 110-3.671h9.202a1.835 1.835 0 110 3.671z" fill="#846F75"/><path d="M92.407 100.348a3.67 3.67 0 01-2.753-1.243l-9.722-11.018a3.671 3.671 0 115.507-4.859l6.947 7.874L106.812 74.5a3.673 3.673 0 015.544 4.817L95.179 99.084a3.672 3.672 0 01-2.758 1.264h-.014zm57.927 28.181a2.57 2.57 0 01-1.927-.87l-5.362-6.075a2.57 2.57 0 013.854-3.401l3.419 3.875 7.547-8.685a2.57 2.57 0 113.88 3.371l-9.471 10.901a2.566 2.566 0 01-1.93.885l-.01-.001z" fill="#58518c"/></svg>