<svg xmlns="http://www.w3.org/2000/svg" xmlns:xlink="http://www.w3.org/1999/xlink" version="1.0" x="0px" y="0px" width="122px" height="122px" viewBox="0 0 122 122" enable-background="new 0 0 122 122" xml:space="preserve">
<g id="Layer_1">
</g>
<g id="Layer_2">
	<g>
      <path fill="#464342" d="M8.708,61.26c0,20.802,12.089,38.779,29.619,47.298L13.258,39.872     C10.342,46.408,8.708,53.641,8.708,61.26z"/>
      <path fill="#464342" d="M96.74,58.608c0-6.495-2.333-10.993-4.334-14.494c-2.664-4.329-5.161-7.995-5.161-12.324     c0-4.831,3.664-9.328,8.825-9.328c0.233,0,0.454,0.029,0.681,0.042c-9.35-8.566-21.807-13.796-35.489-13.796     c-18.36,0-34.513,9.42-43.91,23.688c1.233,0.037,2.395,0.063,3.382,0.063c5.497,0,14.006-0.667,14.006-0.667     c2.833-0.167,3.167,3.994,0.337,4.329c0,0-2.847,0.335-6.015,0.501L48.2,93.547l11.501-34.493l-8.188-22.434     c-2.83-0.166-5.511-0.501-5.511-0.501c-2.832-0.166-2.5-4.496,0.332-4.329c0,0,8.679,0.667,13.843,0.667     c5.496,0,14.006-0.667,14.006-0.667c2.835-0.167,3.168,3.994,0.337,4.329c0,0-2.853,0.335-6.015,0.501l18.992,56.494     l5.242-17.517C95.011,68.328,96.74,63.107,96.74,58.608z"/>
      <path fill="#464342" d="M62.184,65.857l-15.768,45.819c4.708,1.384,9.687,2.141,14.846,2.141c6.12,0,11.989-1.058,17.452-2.979     c-0.141-0.225-0.269-0.464-0.374-0.724L62.184,65.857z"/>
      <path fill="#464342" d="M107.376,36.046c0.226,1.674,0.354,3.471,0.354,5.404c0,5.333-0.996,11.328-3.996,18.824l-16.053,46.413     c15.624-9.111,26.133-26.038,26.133-45.426C113.815,52.124,111.481,43.532,107.376,36.046z"/>
      <path fill="#464342" d="M61.262,0C27.483,0,0,27.481,0,61.26c0,33.783,27.483,61.263,61.262,61.263     c33.778,0,61.265-27.48,61.265-61.263C122.526,27.481,95.04,0,61.262,0z M61.262,119.715c-32.23,0-58.453-26.223-58.453-58.455     c0-32.23,26.222-58.451,58.453-58.451c32.229,0,58.45,26.221,58.45,58.451C119.712,93.492,93.491,119.715,61.262,119.715z"/>
	</g>
</g>
</svg>